{"glyphs":{":":{"x_min":0,"x_max":214,"ha":214,"o":"m 144 406 q 144 361 99 361 q 60 361 60 401 q 60 447 110 447 q 144 447 144 406 z m 150 42 q 150 0 106 0 q 66 0 66 37 q 66 83 117 83 q 132 83 142 70 q 150 58 150 42 z"},"$":{"x_min":0,"x_max":511,"ha":511,"o":"m 458 194 q 458 120 400 66 q 360 29 277 13 q 271 12 273 -137 l 261 -137 q 248 -137 248 -122 q 248 -119 250 -60 q 251 -2 251 2 q 251 9 242 9 q 179 8 139 28 q 68 64 68 113 q 68 135 93 135 q 104 135 126 116 q 141 104 159 50 q 164 36 237 32 q 249 31 249 41 q 249 45 251 168 q 253 292 253 296 q 253 304 248 305 q 169 329 132 366 q 83 415 83 478 q 83 551 139 607 q 179 647 246 656 q 253 656 253 662 l 253 709 q 253 722 270 722 q 279 722 279 714 q 279 711 278 691 q 278 670 278 667 q 278 658 285 658 q 351 658 382 642 q 426 620 426 590 q 426 570 405 570 q 368 570 340 621 q 332 636 287 636 q 278 636 278 630 q 278 626 276 506 q 275 386 275 382 q 275 370 280 368 q 381 339 419 293 q 458 248 458 194 z m 253 623 q 253 629 251 631 q 250 633 244 632 q 205 625 167 594 q 160 587 148 561 q 138 539 138 506 q 138 458 161 435 q 202 394 240 380 q 249 377 250 378 q 252 379 252 383 z m 404 167 q 404 214 365 247 q 325 281 286 290 q 277 292 277 283 q 277 278 274 165 q 271 51 271 47 q 271 30 281 32 q 332 42 371 81 q 404 114 404 167 z"},"?":{"x_min":0,"x_max":340,"ha":340,"o":"m 283 466 q 283 396 223 321 q 205 298 147 255 q 140 250 140 241 q 140 233 144 226 q 154 208 165 197 q 175 185 197 184 q 204 182 204 176 q 204 173 201 167 q 199 165 187 154 l 162 139 q 150 132 146 132 q 140 132 129 143 q 105 167 93 200 q 88 214 88 221 q 88 233 95 239 q 135 275 139 279 q 159 299 177 327 q 215 386 215 459 q 215 480 203 506 q 188 536 164 552 q 120 581 74 581 q 71 581 61 581 q 52 580 50 580 q 41 580 41 587 q 41 590 47 599 q 60 618 68 623 q 72 628 80 630 q 97 633 120 633 q 197 633 245 576 q 283 531 283 466 z m 195 39 q 195 -6 147 -6 q 114 -6 114 30 q 114 72 171 72 q 195 72 195 39 z"},"<":{"x_min":0,"x_max":282,"ha":282,"o":"m 250 106 q 249 102 244 94 q 238 90 234 89 q 230 89 218 98 q 204 108 116 191 q 84 221 42 258 q 29 270 29 274 q 29 279 35 285 q 27 291 27 298 q 27 306 36 314 q 62 348 115 403 q 175 465 196 490 q 205 503 211 503 q 215 501 223 497 q 229 493 229 489 q 229 486 219 471 q 210 459 137 358 q 120 335 89 295 l 83 287 l 91 281 q 118 261 164 203 q 213 142 237 121 q 250 110 250 106 z"},"'":{"x_min":0,"x_max":202,"ha":202,"o":"m 117 637 q 119 635 114 618 q 106 594 114 551 q 125 491 114 461 q 109 448 104 444 q 99 441 91 446 q 83 450 82 455 q 80 461 86 471 q 93 494 84 548 q 76 597 86 628 q 90 639 94 643 q 96 645 100 645 q 104 645 109 643 q 112 641 117 637 z"},"=":{"x_min":0,"x_max":342,"ha":342,"o":"m 309 346 q 304 336 295 335 q 293 334 176 329 q 59 323 49 323 q 35 323 35 323 q 29 325 35 339 q 37 346 39 348 q 42 350 47 351 q 48 351 170 356 q 291 361 295 361 q 305 361 309 360 q 312 358 309 346 z m 309 236 q 304 226 295 225 q 293 224 179 219 q 64 213 57 213 q 35 213 35 213 q 29 215 35 229 q 37 236 39 238 q 42 240 47 241 q 47 241 162 246 q 277 251 295 251 q 306 251 309 250 q 314 248 309 236 z"},"a":{"x_min":0,"x_max":441,"ha":441,"o":"m 427 32 q 427 30 425 26 q 397 -2 385 -10 q 380 -13 376 -13 q 347 -13 319 14 q 292 39 280 73 q 277 82 272 75 q 267 67 245 47 q 223 27 214 22 q 166 -6 127 -6 q 90 -6 72 7 q 44 27 44 68 q 44 116 74 158 q 96 188 141 209 q 190 231 273 247 q 277 248 278 258 q 281 333 278 359 q 275 385 255 397 q 236 410 200 410 q 150 410 130 398 q 118 390 120 381 l 120 367 q 120 346 109 329 q 91 302 68 302 q 51 302 51 324 q 51 343 73 372 q 95 400 121 416 q 168 445 251 445 q 306 445 330 422 q 348 405 348 352 q 348 313 344 236 q 339 158 339 148 q 339 100 364 70 q 382 49 420 38 q 427 35 427 32 z m 276 215 q 276 224 268 224 q 230 224 183 203 q 104 167 104 107 q 104 70 122 56 q 137 44 170 44 q 214 44 257 82 q 269 92 270 107 q 276 165 276 215 z"},"L":{"x_min":0,"x_max":549,"ha":549,"o":"m 550 69 q 550 64 534 38 q 530 28 517 6 q 513 0 509 0 l 44 0 q 38 0 38 5 l 38 21 q 38 26 43 26 l 116 26 q 125 26 125 36 q 125 41 124 95 q 122 150 124 337 q 126 525 126 534 q 126 638 107 638 l 52 638 q 45 638 45 644 l 45 658 q 45 664 51 664 l 315 664 q 320 664 320 660 l 320 643 q 320 638 316 638 l 218 638 q 210 638 209 631 q 208 625 204 393 q 201 175 201 145 q 201 32 227 32 q 385 32 408 34 q 484 41 531 69 q 542 76 545 76 q 550 73 550 69 z"},"3":{"x_min":0,"x_max":458,"ha":458,"o":"m 408 192 q 408 107 319 37 q 262 -8 151 -8 q 81 -8 46 20 q 39 25 39 30 q 39 33 42 37 q 46 41 48 41 q 46 41 60 33 q 84 19 144 19 q 174 19 207 30 q 240 42 263 60 q 301 90 313 113 q 330 141 330 189 q 330 242 273 287 q 247 308 159 326 q 145 329 145 339 q 145 345 162 351 q 210 368 253 406 q 286 436 286 504 q 286 545 261 575 q 238 602 186 602 q 125 602 83 571 q 71 562 69 562 q 61 562 61 573 q 61 577 66 583 q 94 616 137 638 q 176 658 246 658 q 288 658 323 626 q 362 591 362 536 q 362 475 306 419 q 265 378 245 365 q 231 356 248 353 q 317 342 360 305 q 408 264 408 192 z"},";":{"x_min":0,"x_max":214,"ha":214,"o":"m 159 406 q 159 364 114 364 q 75 364 75 401 q 75 447 125 447 q 159 447 159 406 z m 173 -19 q 173 -86 107 -135 q 93 -145 89 -145 q 83 -145 83 -136 q 83 -129 94 -118 q 129 -83 129 -39 q 129 -20 120 -6 q 115 2 101 2 q 81 2 65 13 q 49 25 49 45 q 49 75 93 75 q 127 75 150 48 q 173 20 173 -19 z"},"J":{"x_min":0,"x_max":348,"ha":348,"o":"m 302 643 q 302 638 297 638 l 229 638 q 224 638 224 630 q 224 626 224 474 q 223 321 223 302 q 223 284 224 172 q 224 60 224 45 q 224 -68 220 -90 q 206 -169 130 -219 q 73 -255 -7 -255 q -40 -255 -66 -239 q -94 -221 -94 -199 q -94 -172 -57 -172 q -30 -172 -6 -193 q -1 -197 23 -225 q 29 -231 39 -229 q 93 -216 123 -160 q 144 -120 144 -36 l 144 259 q 144 449 141 519 q 140 553 139 586 q 135 638 122 638 l 48 638 q 43 638 43 644 l 43 659 q 43 664 48 664 l 297 664 q 302 664 302 659 z"},"V":{"x_min":0,"x_max":657,"ha":657,"o":"m 645 643 q 645 638 642 638 l 611 638 q 602 638 597 631 q 547 505 485 352 q 431 218 347 13 q 337 -10 332 -10 q 326 -10 319 7 q 219 256 181 342 q 154 407 127 471 q 81 583 55 621 q 42 638 28 638 l 11 638 q 7 638 6 640 q 5 641 5 643 l 5 659 q 5 664 10 664 l 223 664 q 229 664 229 660 l 229 644 q 229 638 225 638 l 165 638 q 153 638 153 626 q 153 617 158 603 q 203 494 254 371 q 344 143 352 126 q 356 116 359 116 q 362 116 366 122 q 375 138 423 260 q 447 323 471 386 q 475 394 502 469 q 530 544 534 556 q 546 594 546 619 q 546 638 531 638 l 476 638 q 469 638 469 643 l 469 659 q 469 664 473 664 l 640 664 q 645 664 645 660 z"},"\"":{"x_min":0,"x_max":282,"ha":282,"o":"m 199 637 q 201 635 196 618 q 188 594 196 551 q 207 491 196 461 q 191 448 186 444 q 181 441 173 446 q 166 450 164 455 q 162 461 168 471 q 175 494 166 548 q 157 597 168 628 q 172 639 176 643 q 178 645 182 645 q 186 645 191 643 q 194 641 199 637 z m 117 637 q 119 635 114 618 q 106 594 114 551 q 125 491 114 461 q 109 448 104 444 q 99 441 91 446 q 83 450 82 455 q 80 461 86 471 q 93 494 84 548 q 76 597 86 628 q 90 639 94 643 q 96 645 100 645 q 104 645 109 643 q 112 641 117 637 z"},"7":{"x_min":0,"x_max":440,"ha":440,"o":"m 442 637 q 442 628 436 619 q 417 591 346 486 q 292 406 245 309 q 197 210 180 143 q 164 80 164 27 q 164 11 166 -10 q 167 -31 167 -31 q 167 -45 161 -45 q 159 -45 156 -44 q 153 -44 152 -44 q 114 -26 102 -14 q 96 -8 96 5 q 96 33 109 96 q 123 163 161 244 q 209 347 293 466 q 325 507 365 562 q 373 574 373 577 q 373 582 364 581 q 362 581 360 580 q 284 564 170 564 q 82 564 31 579 q 20 583 20 588 q 20 589 24 599 q 29 608 36 624 q 41 633 47 648 q 50 656 57 656 q 60 656 82 650 q 148 632 252 632 q 285 632 347 639 q 397 646 408 648 q 417 650 429 650 q 442 650 442 637 z"},"S":{"x_min":0,"x_max":503,"ha":503,"o":"m 447 183 q 447 102 395 50 q 340 -5 235 -5 q 112 -5 61 40 q 55 45 55 60 q 55 63 55 117 q 54 171 54 175 q 54 181 61 181 l 81 181 q 87 181 88 175 q 89 168 91 144 q 94 91 130 58 q 147 42 179 32 q 210 21 236 21 q 333 21 366 86 q 381 116 381 161 q 381 201 353 230 q 322 262 244 290 q 156 321 119 353 q 70 395 70 483 q 70 566 137 623 q 188 667 272 667 q 327 667 375 648 q 405 637 419 624 q 426 619 427 611 q 432 574 432 511 q 432 501 429 501 l 406 501 q 402 501 401 507 q 398 521 394 544 q 387 578 360 593 q 311 621 246 621 q 188 621 160 596 q 131 570 131 505 q 131 465 158 435 q 171 420 209 404 q 241 391 273 378 q 336 351 347 344 q 384 324 409 296 q 447 253 447 183 z"},"}":{"x_min":0,"x_max":325,"ha":325,"o":"m 298 248 q 298 232 278 232 q 256 232 233 214 q 208 195 208 171 q 208 124 225 57 q 242 -10 242 -61 q 242 -143 206 -195 q 165 -254 87 -254 l -8 -254 q -15 -254 -15 -250 l -15 -234 q -15 -228 -9 -228 l 55 -228 q 116 -228 147 -168 q 174 -117 174 -36 q 174 13 162 77 q 151 141 151 169 q 151 199 182 222 q 204 234 225 247 q 151 266 151 317 q 151 345 162 402 q 174 458 174 507 q 174 585 145 639 q 112 699 55 699 l -9 699 q -15 699 -15 705 l -15 721 q -15 725 -8 725 l 87 725 q 156 725 200 666 q 242 610 242 532 q 242 481 225 422 q 208 362 208 315 q 208 292 233 277 q 254 264 278 264 q 298 264 298 248 z"},"Z":{"x_min":0,"x_max":659,"ha":659,"o":"m 618 134 q 618 129 593 54 q 586 33 575 2 q 571 -9 560 -11 q 544 -13 518 -13 q 513 -13 353 -5 q 253 0 168 0 q 124 0 82 -3 q 69 -4 59 -5 q 50 -7 48 -7 q 39 -7 39 0 q 40 10 50 21 q 73 58 212 235 q 314 356 434 500 q 483 560 492 578 q 495 584 493 585 q 490 587 476 586 q 408 582 266 582 q 237 582 193 583 q 149 584 144 584 q 88 584 77 578 q 60 569 63 569 q 54 569 54 576 q 54 579 75 618 q 87 641 95 659 q 100 665 107 664 q 211 651 366 651 q 374 651 443 652 q 512 653 516 653 q 529 653 559 656 q 589 659 588 659 q 598 659 598 651 q 598 646 591 637 q 473 494 345 341 q 322 316 254 231 q 168 125 132 69 q 127 61 128 59 q 130 57 137 59 q 176 68 277 68 q 331 68 415 63 q 499 58 498 58 q 565 58 591 114 q 602 137 605 137 l 615 137 q 618 136 618 134 z"},"x":{"x_min":0,"x_max":529,"ha":529,"o":"m 524 5 q 524 0 521 0 l 299 0 q 294 0 294 5 l 294 21 q 294 26 298 26 l 358 26 q 367 26 367 33 q 367 42 360 52 l 259 196 q 254 203 249 200 q 231 188 201 158 q 171 128 160 112 q 126 64 126 49 q 126 25 143 25 l 196 25 q 200 25 200 20 l 200 6 q 200 0 194 0 l 12 0 q 8 0 7 1 q 6 3 6 5 l 6 20 q 6 26 11 26 l 55 26 q 63 26 71 39 q 77 52 86 67 q 109 105 169 161 q 203 193 235 217 q 241 222 236 229 q 197 283 170 317 q 120 381 104 399 q 85 420 63 420 l 33 420 q 29 420 29 425 l 29 440 q 29 446 33 446 l 252 446 q 256 446 256 441 l 256 424 q 256 420 251 420 l 200 420 q 189 420 189 411 q 189 402 201 386 q 236 336 283 272 q 289 265 293 270 q 333 302 370 357 q 391 389 391 403 q 391 420 373 420 l 325 420 q 321 420 321 424 l 321 441 q 321 446 327 446 l 507 446 q 511 446 511 442 l 511 425 q 511 420 506 420 l 468 420 q 457 420 444 402 q 403 342 358 300 q 334 277 305 252 q 300 247 307 238 q 356 169 413 91 q 423 74 442 53 q 466 25 478 25 l 521 25 q 524 25 524 22 z"},")":{"x_min":0,"x_max":385,"ha":385,"o":"m 327 261 q 327 99 235 -41 q 168 -143 62 -230 q 47 -243 45 -243 q 42 -243 35 -234 q 31 -229 31 -224 q 31 -219 43 -208 q 98 -163 134 -111 q 233 33 233 249 q 233 354 221 420 q 211 469 186 533 q 147 628 49 701 q 36 710 36 715 q 36 718 44 725 q 52 732 54 732 q 61 732 73 724 q 161 658 214 587 q 267 516 292 454 q 327 367 327 261 z"},"&":{"x_min":0,"x_max":865,"ha":865,"o":"m 846 116 q 846 109 838 90 q 817 41 770 6 q 752 -7 725 -7 q 704 -7 665 4 q 627 15 572 49 q 563 55 555 50 q 504 20 487 14 q 432 -6 339 -6 q 180 -6 108 64 q 46 125 46 235 q 46 300 75 357 q 90 386 116 407 q 136 423 157 433 q 162 436 156 445 q 145 462 137 483 q 124 516 124 539 q 124 552 138 570 q 177 621 234 650 q 240 653 259 653 q 280 653 314 644 q 352 635 367 624 q 376 617 376 611 q 375 588 364 559 q 357 539 355 539 q 353 539 345 550 q 336 563 315 572 q 267 593 213 593 q 170 593 170 562 q 170 543 188 512 q 205 483 259 413 q 325 328 358 302 q 364 297 367 298 q 369 299 369 304 q 366 395 415 433 q 451 461 515 461 q 558 461 623 444 q 677 430 735 430 q 769 430 789 444 q 814 462 814 491 q 814 496 814 500 q 813 508 816 510 q 822 514 823 515 q 824 516 827 512 q 835 499 835 475 q 835 431 818 411 q 785 373 754 373 q 727 373 651 392 q 646 394 645 392 q 643 390 647 384 q 678 337 678 281 q 678 182 623 111 q 619 106 626 101 q 638 89 694 71 q 725 61 752 61 q 798 61 828 111 q 834 121 837 123 q 839 123 842 121 q 846 117 846 116 z m 650 276 q 650 339 610 379 q 563 424 498 424 q 445 424 420 400 q 393 374 393 326 q 393 272 413 252 q 436 229 492 186 q 552 141 585 123 q 597 117 604 125 q 650 181 650 276 z m 530 64 q 534 68 528 72 q 473 109 426 144 q 371 186 314 245 q 227 337 178 411 q 173 418 168 415 q 144 402 126 371 q 106 334 106 291 q 106 257 112 225 q 124 165 172 116 q 226 62 296 44 q 335 34 399 34 q 497 34 530 64 z"},"_":{"x_min":0,"x_max":376,"ha":376,"o":"m 378 -170 q 373 -178 364 -178 l 14 -178 q 5 -178 0 -170 q -6 -161 0 -150 q 5 -140 14 -140 q 235 -144 364 -140 q 373 -140 378 -150 q 384 -161 378 -170 z"},"v":{"x_min":0,"x_max":459,"ha":459,"o":"m 458 424 q 458 420 455 420 l 431 420 q 424 420 420 410 q 409 383 389 337 q 334 208 271 63 q 263 43 251 14 q 242 -4 237 -4 q 233 -4 229 4 q 226 12 223 19 q 222 24 174 133 q 127 242 73 375 q 56 420 39 420 l 11 420 q 5 420 5 425 l 5 441 q 5 446 11 446 l 204 446 q 209 446 209 441 l 209 425 q 209 420 205 420 l 146 420 q 139 420 139 410 q 139 404 143 391 q 145 386 166 332 q 209 225 256 116 q 263 105 265 105 q 268 105 272 113 q 285 138 333 259 q 370 353 370 399 q 370 420 357 420 l 309 420 q 304 420 304 425 l 304 440 q 304 446 309 446 l 452 446 q 458 446 458 441 z"},"O":{"x_min":0,"x_max":722,"ha":722,"o":"m 685 346 q 685 192 611 105 q 585 74 568 61 q 532 32 475 11 q 429 -6 356 -6 q 239 -6 180 24 q 137 45 108 79 q 72 120 56 169 q 37 229 37 325 q 37 391 55 450 q 77 520 119 568 q 162 616 241 647 q 297 669 366 669 q 471 669 526 644 q 588 616 623 568 q 685 483 685 346 z m 608 320 q 608 390 592 443 q 574 504 534 549 q 498 590 448 611 q 391 635 333 635 q 258 635 225 611 q 165 568 142 516 q 112 448 112 349 q 112 204 166 120 q 199 69 264 39 q 315 15 376 15 q 444 15 502 53 q 547 83 579 154 q 608 219 608 320 z"},"(":{"x_min":0,"x_max":385,"ha":385,"o":"m 355 714 q 355 710 343 700 q 310 673 273 625 q 232 572 214 529 q 162 403 162 221 q 162 12 245 -118 q 268 -153 344 -213 q 352 -220 352 -225 q 352 -229 346 -236 q 339 -244 336 -244 q 333 -244 321 -235 q 220 -163 151 -52 q 71 78 71 230 q 71 418 184 576 q 249 667 323 722 q 334 731 341 731 q 346 731 351 723 q 355 717 355 714 z"},"C":{"x_min":0,"x_max":687,"ha":687,"o":"m 641 96 q 644 92 640 88 q 604 48 519 18 q 453 -6 352 -6 q 267 -6 217 11 q 166 29 117 76 q 37 154 37 313 q 37 401 83 490 q 120 562 196 611 q 294 675 449 675 q 507 675 555 670 q 611 664 626 656 q 629 655 629 651 q 628 643 624 610 q 621 583 619 563 q 618 557 615 557 q 611 557 610 562 q 609 566 605 575 q 600 584 564 609 q 512 635 411 635 q 281 635 204 555 q 117 465 117 329 q 117 180 209 96 q 255 54 303 39 q 345 25 417 25 q 470 25 520 48 q 570 71 594 109 q 608 131 611 150 q 611 158 614 158 q 616 158 617 154 q 621 138 628 123 q 633 112 641 96 z"},"W":{"x_min":0,"x_max":1081,"ha":1081,"o":"m 1079 643 q 1079 638 1074 638 l 1040 638 q 1031 638 1025 628 q 1021 623 968 492 q 917 365 912 353 q 848 208 761 7 q 754 -11 748 -11 q 742 -11 736 5 q 688 121 624 283 q 585 393 551 468 q 546 479 544 479 q 542 479 539 472 q 537 462 457 274 q 363 51 340 7 q 333 -7 328 -7 q 320 -7 314 11 q 256 154 194 308 q 142 435 84 574 q 77 594 53 630 q 43 638 31 638 l 10 638 q 5 638 5 644 l 5 659 q 5 664 9 664 l 215 664 q 222 664 222 658 l 222 643 q 222 638 217 638 l 157 638 q 147 638 147 630 q 147 621 151 611 q 239 401 249 375 q 327 165 348 123 q 354 112 360 122 q 398 210 441 308 q 514 471 524 514 q 526 524 522 540 q 507 571 489 611 q 473 638 460 638 l 409 638 q 404 638 404 643 l 404 659 q 404 664 409 664 l 653 664 q 658 664 658 659 l 658 644 q 658 638 652 638 l 573 638 q 567 638 567 631 q 567 627 576 607 q 597 560 673 365 q 714 258 765 130 q 770 120 773 120 q 775 120 779 126 q 794 152 833 246 q 854 293 874 341 q 913 425 946 541 q 957 579 957 616 q 957 638 938 638 l 890 638 q 884 638 884 644 l 884 658 q 884 664 891 664 l 1073 664 q 1079 664 1079 658 z"},"A":{"x_min":0,"x_max":655,"ha":655,"o":"m 650 5 q 650 0 647 0 l 422 0 q 417 0 417 6 l 417 19 q 417 26 422 26 l 489 26 q 497 26 495 35 q 491 50 461 136 q 432 223 429 229 q 425 239 419 239 l 183 239 q 179 238 176 233 q 169 220 152 171 q 136 123 132 105 q 124 66 124 58 q 124 26 132 26 l 206 26 q 212 26 212 19 l 212 5 q 212 0 207 0 l 10 0 q 5 0 5 5 l 5 21 q 5 26 9 26 l 51 26 q 62 26 80 72 q 98 118 189 337 q 247 475 330 672 q 335 687 341 689 q 354 693 376 701 q 379 703 384 696 q 388 689 380 681 q 365 666 365 652 q 365 637 372 615 q 398 542 467 341 q 536 140 563 81 q 589 26 600 26 l 646 26 q 650 26 650 19 z m 408 283 q 388 341 365 411 q 342 480 318 555 q 316 562 314 563 q 312 561 309 555 q 248 406 221 343 q 195 281 195 279 q 195 276 199 276 l 406 276 q 411 276 408 283 z"},"f":{"x_min":0,"x_max":289,"ha":289,"o":"m 323 702 q 323 676 292 676 q 258 676 224 709 q 216 714 212 714 q 193 714 177 696 q 151 665 151 600 q 151 604 150 554 q 150 503 150 454 q 150 444 156 444 q 166 444 262 445 q 267 445 267 440 l 267 418 q 267 412 262 412 q 259 412 210 413 q 161 414 159 414 q 151 414 151 407 q 151 404 152 269 q 153 133 153 126 q 153 25 172 25 l 260 25 q 265 25 265 21 l 265 5 q 265 0 261 0 l 14 0 q 9 0 9 3 l 9 21 q 9 23 10 25 q 11 26 15 26 l 82 26 q 89 26 89 34 q 89 37 87 98 q 86 158 86 164 l 86 401 q 86 413 80 413 q 74 413 40 412 q 37 412 36 413 q 35 414 35 419 l 35 436 q 35 444 41 444 q 43 444 59 444 q 75 445 81 445 q 86 445 86 452 l 86 590 q 86 663 141 708 q 183 744 251 744 q 280 744 303 728 q 323 714 323 702 z"},"Q":{"x_min":0,"x_max":729,"ha":729,"o":"m 756 -191 q 756 -194 751 -195 q 685 -210 593 -210 q 570 -210 554 -201 q 505 -174 441 -118 q 382 -66 339 -14 q 332 -5 311 -5 q 240 -5 185 21 q 141 42 111 75 q 37 158 37 315 q 37 391 57 452 q 81 525 124 571 q 165 615 234 643 q 298 669 371 669 q 480 669 540 640 q 591 615 631 558 q 687 478 687 352 q 687 190 615 105 q 571 53 519 27 q 491 13 482 9 q 465 3 434 -4 q 421 -5 427 -12 q 462 -51 548 -106 q 610 -146 647 -161 q 687 -177 720 -177 q 733 -177 751 -174 q 756 -174 756 -179 z m 610 321 q 610 379 590 435 q 572 486 570 489 q 557 520 533 547 q 499 586 459 607 q 406 635 338 635 q 270 635 235 614 q 165 572 139 512 q 109 442 109 353 q 109 280 123 228 q 145 146 189 98 q 225 59 255 44 q 307 18 376 18 q 437 18 471 35 q 543 70 580 151 q 610 216 610 321 z"},"w":{"x_min":0,"x_max":779,"ha":779,"o":"m 774 425 q 774 420 769 420 l 740 420 q 729 420 721 396 q 718 388 643 219 q 641 214 597 114 q 553 14 549 6 q 542 -15 534 -15 q 527 -15 519 6 q 488 80 455 162 q 429 227 400 298 q 395 311 388 299 q 371 270 316 137 q 289 72 259 1 q 253 -15 246 -15 q 240 -15 231 7 q 184 117 135 235 q 102 312 67 395 q 57 420 43 420 l 10 420 q 5 420 5 425 l 5 441 q 5 443 6 445 q 7 446 11 446 l 193 446 q 199 446 199 442 l 199 424 q 199 420 195 420 l 147 420 q 140 420 140 412 q 140 403 146 392 q 169 338 196 276 q 199 268 229 190 q 261 110 264 103 q 269 94 276 105 q 284 121 329 224 q 373 325 376 335 q 377 343 373 352 q 358 383 355 394 q 342 420 328 420 l 288 420 q 283 420 283 424 l 283 440 q 283 446 288 446 l 479 446 q 484 446 484 441 l 484 425 q 484 420 481 420 l 431 420 q 425 420 425 411 q 425 405 431 390 q 457 325 493 241 q 520 172 552 93 q 559 81 564 92 q 570 104 615 211 q 657 311 663 327 q 678 367 678 396 q 678 420 663 420 l 612 420 q 606 420 606 426 l 606 441 q 606 446 611 446 l 769 446 q 774 446 774 442 z"},"-":{"x_min":0,"x_max":341,"ha":341,"o":"m 298 313 q 298 301 290 298 q 288 296 179 250 q 70 205 63 202 q 49 197 49 197 q 43 197 43 212 q 43 225 51 228 q 224 300 281 322 q 292 326 293 326 q 298 326 298 313 z"},"E":{"x_min":0,"x_max":573,"ha":573,"o":"m 549 70 q 535 42 516 6 q 512 0 506 0 l 44 0 q 39 0 39 6 l 39 21 q 39 26 43 26 l 115 26 q 125 26 125 36 q 125 41 124 186 q 123 332 123 337 q 123 341 123 437 q 122 533 122 539 q 122 638 103 638 l 44 638 q 39 638 39 643 l 39 659 q 39 664 45 664 l 482 664 q 491 664 506 665 q 521 666 520 666 q 526 666 525 661 q 518 634 508 599 q 504 588 500 588 q 500 588 493 595 q 475 613 436 620 q 381 630 204 632 q 198 632 196 626 q 194 620 194 384 q 194 374 202 374 l 441 374 q 448 374 449 381 q 450 389 453 413 q 456 437 456 439 q 456 448 462 448 l 469 448 q 475 448 475 440 q 475 438 473 399 q 471 360 471 353 q 471 346 472 302 q 473 258 473 255 q 473 244 468 244 l 460 244 q 455 244 454 251 q 452 282 449 325 q 448 335 440 335 q 436 335 320 337 q 204 339 201 339 q 195 339 195 330 l 195 146 q 195 29 220 29 q 449 29 524 64 q 542 74 546 76 q 551 76 549 70 z"},"s":{"x_min":0,"x_max":396,"ha":396,"o":"m 361 126 q 361 73 331 37 q 294 -7 207 -7 q 114 -7 50 44 q 43 49 43 65 q 41 85 41 151 q 41 160 49 160 q 57 160 59 153 q 59 151 63 139 q 67 125 68 120 q 80 78 114 36 q 123 25 130 24 q 153 20 206 20 q 258 20 289 47 q 313 68 313 105 q 313 127 295 143 q 270 165 230 174 q 226 175 202 184 q 178 192 173 194 q 116 219 91 243 q 56 277 56 331 q 56 375 87 407 q 126 448 200 448 q 291 448 335 404 q 339 400 339 392 l 339 322 q 339 311 334 311 q 328 311 325 317 q 307 357 284 405 q 280 413 273 414 q 251 420 206 420 q 163 420 136 404 q 105 386 105 350 q 105 292 185 269 q 209 262 257 246 q 302 231 328 207 q 361 177 361 126 z"},">":{"x_min":0,"x_max":282,"ha":282,"o":"m 259 298 q 259 293 251 285 q 257 279 257 274 q 257 269 244 258 q 179 195 68 98 q 57 88 52 89 q 47 89 42 94 q 36 100 36 106 q 36 112 49 121 q 71 139 123 204 q 173 265 195 281 l 203 287 l 197 295 q 149 360 67 471 q 58 483 58 487 q 58 492 63 498 q 69 503 75 503 q 82 503 90 490 q 154 422 250 314 q 259 306 259 298 z"},"l":{"x_min":0,"x_max":269,"ha":269,"o":"m 261 4 q 261 0 256 0 l 13 0 q 7 0 7 5 l 7 22 q 7 28 12 28 l 92 28 q 102 28 102 39 l 102 581 q 102 689 83 689 l 23 689 q 17 689 17 695 l 17 711 q 17 718 21 718 l 59 718 q 93 718 131 728 q 169 738 164 738 q 173 738 173 724 q 173 723 170 435 q 167 146 167 136 q 167 28 185 28 l 256 28 q 261 28 261 23 z"},"8":{"x_min":0,"x_max":485,"ha":485,"o":"m 436 192 q 436 103 373 40 q 324 -9 230 -9 q 144 -9 98 44 q 60 88 60 164 q 60 221 97 273 q 111 293 160 327 q 166 331 157 335 q 69 376 69 467 q 69 553 130 614 q 175 659 258 659 q 337 659 381 615 q 399 597 411 567 q 421 540 421 520 q 421 462 382 416 q 363 394 309 367 q 299 360 311 356 q 354 341 387 310 q 436 262 436 192 z m 362 497 q 362 544 327 580 q 291 617 213 617 q 185 617 175 613 q 162 608 146 588 q 123 558 123 508 q 123 406 260 379 q 274 376 292 384 q 311 392 332 413 q 362 450 362 497 z m 380 152 q 380 211 342 247 q 304 283 200 317 q 191 320 186 317 q 163 306 139 273 q 114 239 114 192 q 114 161 127 123 q 140 86 153 71 q 177 45 198 36 q 225 24 275 24 q 324 24 348 52 q 380 89 380 152 z"},"\\":{"x_min":0,"x_max":292,"ha":292,"o":"m 288 -39 q 288 -41 280 -46 q 275 -48 267 -48 q 261 -42 257 -31 q 241 13 133 334 q 25 658 13 698 q 8 714 10 716 q 10 718 18 723 q 22 725 31 725 q 37 719 41 708 q 169 341 285 -21 q 292 -34 288 -39 z"},"e":{"x_min":0,"x_max":428,"ha":428,"o":"m 413 66 q 413 65 412 63 q 397 48 387 41 q 369 28 338 14 q 289 -8 231 -8 q 145 -8 94 43 q 32 105 32 194 q 32 257 39 287 q 56 360 99 402 q 149 451 222 451 q 257 451 280 440 q 297 432 336 404 q 382 371 398 336 q 402 327 402 321 q 402 315 393 312 q 375 305 284 288 q 181 269 147 269 q 144 269 124 269 q 104 268 100 268 q 94 268 94 245 q 94 144 168 80 q 208 46 298 46 q 344 46 374 56 q 395 63 403 71 q 404 72 407 73 q 410 73 411 70 q 412 68 413 66 z m 322 327 q 322 331 317 340 q 296 377 264 401 q 232 426 191 426 q 160 426 132 388 q 122 374 110 345 q 97 313 97 296 q 97 288 103 288 q 98 288 187 295 q 271 302 314 318 q 322 321 322 327 z"},"b":{"x_min":0,"x_max":531,"ha":531,"o":"m 499 217 q 499 109 432 46 q 375 -8 290 -8 q 220 -8 167 17 q 140 30 128 30 q 117 30 107 5 q 103 -8 99 -22 q 96 -32 91 -32 l 87 -32 q 80 -32 80 -15 q 80 -12 81 165 q 82 342 82 356 q 82 447 83 527 q 84 606 84 602 q 84 689 63 689 l 10 689 q 4 689 4 695 l 4 707 q 4 715 9 715 l 26 715 q 95 715 135 733 q 148 739 155 739 q 159 739 161 734 q 161 731 161 724 q 161 724 156 569 q 151 414 151 381 q 151 370 157 374 q 230 422 233 424 q 275 447 315 447 q 398 447 450 383 q 499 322 499 217 z m 441 191 q 441 275 396 333 q 358 381 269 381 q 198 381 155 348 q 151 344 151 337 l 151 167 q 151 91 160 48 q 161 44 166 41 q 178 33 216 26 q 254 18 286 18 q 353 18 399 63 q 441 104 441 191 z"},"%":{"x_min":0,"x_max":804,"ha":804,"o":"m 762 175 q 762 125 746 84 q 728 39 679 9 q 646 -11 602 -11 q 550 -11 532 -1 q 487 18 464 68 q 442 115 442 172 q 442 235 466 278 q 489 320 529 341 q 562 358 619 358 q 662 358 693 340 q 730 314 746 271 q 762 227 762 175 z m 710 156 q 710 235 674 283 q 639 330 577 330 q 548 330 539 326 q 527 322 517 306 q 496 273 496 206 q 496 135 519 80 q 535 41 562 23 q 584 8 613 8 q 646 8 664 19 q 687 33 700 71 q 710 100 710 156 z m 523 662 q 527 658 520 644 q 481 522 276 -85 q 272 -96 266 -102 q 257 -102 252 -100 q 248 -98 245 -93 q 240 -88 248 -75 q 361 261 492 654 q 496 665 502 671 q 509 671 515 669 q 518 667 523 662 z m 351 447 q 351 396 335 356 q 317 311 268 281 q 235 261 191 261 q 139 261 121 271 q 76 290 53 340 q 31 387 31 444 q 31 507 55 550 q 79 592 118 613 q 150 630 208 630 q 250 630 282 612 q 319 586 335 542 q 351 499 351 447 z m 299 428 q 299 507 263 555 q 228 602 166 602 q 140 602 132 600 q 117 595 106 578 q 85 546 85 478 q 85 407 108 352 q 124 313 151 295 q 173 280 202 280 q 235 280 253 291 q 276 305 289 343 q 299 372 299 428 z"},"m":{"x_min":0,"x_max":776,"ha":776,"o":"m 769 4 q 769 0 763 0 l 564 0 q 559 0 559 5 l 559 20 q 559 26 564 26 l 610 26 q 618 26 619 34 q 624 61 624 249 q 624 342 604 367 q 580 397 531 397 q 467 397 428 357 q 424 352 424 344 l 424 129 q 424 26 438 26 l 496 26 q 500 26 500 21 l 500 5 q 500 0 496 0 l 305 0 q 300 0 300 4 l 300 21 q 300 26 304 26 l 352 26 q 359 26 359 35 q 359 38 358 176 q 358 314 358 321 q 358 401 279 401 q 205 401 166 362 q 160 356 160 349 l 160 127 q 160 25 177 25 l 236 25 q 241 25 241 21 l 241 5 q 241 0 237 0 l 28 0 q 24 0 23 1 q 22 3 22 5 l 22 19 q 22 26 28 26 l 86 26 q 95 26 95 38 q 95 40 93 189 q 91 338 91 345 q 91 425 71 425 l 20 425 q 14 425 14 430 l 14 445 q 14 450 19 450 l 87 450 q 103 450 128 453 q 132 454 142 456 q 151 458 154 458 q 161 458 161 450 q 161 448 160 424 q 159 400 159 396 q 159 384 166 388 q 174 395 220 423 q 231 431 254 442 q 289 454 322 454 q 360 454 386 432 q 407 415 414 385 q 417 375 424 381 q 448 405 462 413 q 469 419 497 437 q 521 450 570 450 q 620 450 654 416 q 692 378 692 263 q 692 258 689 177 q 686 95 686 91 q 686 26 697 26 l 765 26 q 769 26 769 21 z"},"#":{"x_min":0,"x_max":562,"ha":562,"o":"m 538 152 q 540 146 536 139 q 534 136 529 131 q 525 126 511 134 q 483 143 345 190 q 312 89 272 -31 q 268 -43 262 -48 q 257 -50 249 -46 q 246 -44 241 -39 q 238 -36 244 -21 q 262 34 315 201 q 265 219 163 254 l 66 -31 q 63 -40 56 -48 q 48 -50 43 -46 q 36 -42 35 -39 q 30 -34 38 -21 q 62 52 133 265 q 91 280 34 300 q 24 303 17 310 q 14 316 19 323 q 21 326 26 331 q 28 333 44 328 q 69 319 142 295 q 159 344 192 443 l 34 496 q 18 500 18 509 q 18 515 20 522 q 21 529 29 529 q 35 529 44 524 q 86 511 202 473 l 282 708 q 287 720 292 725 q 299 727 305 723 q 308 721 313 716 q 315 714 310 698 q 301 667 232 463 q 309 439 382 414 l 478 708 q 481 719 488 725 q 494 726 501 723 q 504 721 509 716 q 511 714 506 698 q 482 623 413 405 q 459 390 521 368 q 529 367 538 358 q 541 352 536 345 q 534 342 529 337 q 525 332 511 340 q 510 340 404 375 q 385 317 354 220 q 444 190 521 162 q 532 158 538 152 z m 373 384 q 323 400 222 433 q 206 384 172 284 q 224 267 324 231 q 342 291 373 384 z"},",":{"x_min":0,"x_max":214,"ha":214,"o":"m 176 -21 q 176 -87 110 -136 q 95 -147 92 -147 q 86 -147 86 -138 q 86 -131 97 -120 q 132 -85 132 -40 q 132 -22 123 -7 q 118 0 104 0 q 84 0 69 12 q 52 24 52 44 q 52 74 96 74 q 128 74 152 47 q 176 21 176 -21 z"},"n":{"x_min":0,"x_max":533,"ha":533,"o":"m 525 6 q 525 0 521 0 l 315 0 q 310 0 310 4 l 310 21 q 310 26 315 26 l 367 26 q 374 26 376 34 q 383 85 383 261 q 383 343 358 367 q 333 391 281 391 q 215 391 173 362 q 166 357 166 349 q 163 328 163 128 q 163 26 178 26 l 245 26 q 250 26 250 21 l 250 4 q 250 0 245 0 l 26 0 q 23 0 22 1 q 21 2 21 6 l 21 22 q 21 26 26 26 l 88 26 q 95 26 95 35 q 95 38 97 191 q 98 344 98 352 q 98 425 83 425 l 24 425 q 18 425 18 431 l 18 446 q 18 450 22 450 l 85 450 q 90 450 111 451 q 131 452 132 452 q 137 453 147 455 q 157 457 161 457 q 168 457 168 446 q 168 443 167 420 q 166 397 166 394 q 166 379 172 385 q 214 419 253 436 q 290 452 324 452 q 376 452 411 418 q 448 382 448 283 q 448 250 445 173 q 442 95 442 96 q 442 25 452 25 l 519 25 q 525 25 525 22 z"},"h":{"x_min":0,"x_max":529,"ha":529,"o":"m 524 4 q 524 0 519 0 l 318 0 q 313 0 313 5 l 313 19 q 313 26 318 26 l 363 26 q 370 26 371 38 q 377 86 377 154 q 377 195 376 236 q 375 278 375 275 q 375 338 358 363 q 340 390 284 390 q 213 390 168 360 q 162 356 162 347 q 162 346 163 249 q 163 153 163 147 q 163 25 183 25 l 250 25 q 254 25 254 21 l 254 4 q 254 0 250 0 l 28 0 q 23 0 23 4 l 23 20 q 23 26 29 26 l 88 26 q 95 26 95 34 l 95 575 q 95 689 80 689 l 17 689 q 15 689 13 690 q 12 691 12 695 l 12 710 q 12 713 13 714 q 14 715 18 715 l 39 715 q 63 715 122 728 q 160 743 162 743 q 170 743 170 727 q 170 731 166 585 q 161 438 161 393 q 161 380 167 384 q 178 391 201 407 q 214 417 238 431 q 286 454 328 454 q 372 454 405 423 q 443 388 443 316 q 443 312 441 225 q 439 137 439 131 q 439 26 452 26 l 519 26 q 524 26 524 21 z"},"z":{"x_min":0,"x_max":486,"ha":486,"o":"m 465 68 q 465 66 459 47 q 453 28 453 26 q 451 16 448 8 q 444 0 437 0 l 30 0 q 18 0 18 10 q 18 16 27 27 q 50 56 185 179 q 297 282 344 335 q 373 368 373 378 q 373 386 357 386 l 199 386 q 139 386 116 382 q 93 381 58 372 q 47 364 43 364 q 38 364 38 370 q 38 363 45 407 q 49 432 53 444 q 54 450 64 450 q 65 450 80 449 q 94 448 98 448 q 101 448 251 445 q 400 441 407 441 q 414 441 433 442 q 452 444 452 444 q 460 444 460 437 q 460 432 453 422 q 427 392 389 349 q 318 267 216 174 q 159 123 127 87 q 113 71 113 67 q 113 58 129 58 l 272 58 q 363 58 415 64 q 430 66 444 71 q 458 75 460 75 q 465 75 465 68 z"},"B":{"x_min":0,"x_max":558,"ha":558,"o":"m 514 173 q 514 96 459 48 q 397 -6 290 -6 q 278 -6 214 -3 q 150 0 120 0 l 45 0 q 41 0 41 4 l 41 21 q 41 26 45 26 l 113 26 q 125 26 125 43 q 125 49 123 190 q 121 331 121 345 l 121 542 q 117 633 102 633 l 28 633 q 24 633 24 638 l 24 654 q 24 658 29 658 l 175 658 q 182 658 227 660 q 273 661 281 661 q 328 661 328 661 q 351 660 391 650 q 429 635 455 604 q 485 568 485 516 q 485 477 471 449 q 465 438 445 411 q 418 376 370 350 q 360 345 369 342 q 423 325 467 286 q 514 244 514 173 z m 410 477 q 410 541 366 586 q 321 632 247 632 q 214 632 204 629 q 197 627 196 619 q 195 610 195 366 q 195 357 200 357 q 199 357 220 357 q 241 358 262 358 q 271 358 300 355 q 333 352 335 352 q 339 352 347 356 q 375 371 392 403 q 410 438 410 477 z m 431 160 q 431 228 386 273 q 323 336 218 336 q 205 336 199 333 q 196 332 196 323 l 196 109 q 198 34 212 28 q 238 17 290 17 q 354 17 389 49 q 431 87 431 160 z"},"K":{"x_min":0,"x_max":675,"ha":675,"o":"m 665 6 q 665 0 660 0 l 524 0 q 515 0 512 5 q 510 7 426 114 q 371 184 318 237 q 267 289 250 302 q 242 307 237 303 q 237 303 202 273 q 199 266 199 263 q 199 262 200 201 q 200 140 200 128 q 200 26 213 26 l 294 26 q 298 26 298 20 l 298 5 q 298 0 293 0 l 57 0 q 50 0 50 4 l 50 21 q 50 23 51 25 q 52 26 56 26 l 117 26 q 125 26 125 36 q 125 38 125 183 q 124 329 124 337 q 124 345 124 442 q 123 538 123 541 q 123 638 107 638 l 36 638 q 31 638 31 643 l 31 660 q 31 664 36 664 l 274 664 q 278 664 278 660 l 278 644 q 278 638 274 638 l 206 638 q 201 638 201 631 q 198 616 198 316 q 198 303 203 305 q 293 389 389 476 q 435 517 480 570 q 512 608 512 629 q 512 638 501 638 l 440 638 q 436 638 436 643 l 436 660 q 436 664 441 664 l 645 664 q 651 664 651 660 l 651 644 q 651 638 647 638 l 598 638 q 585 638 574 626 q 481 526 434 486 q 401 458 305 362 q 297 352 301 349 q 332 325 373 285 q 428 232 511 128 q 566 59 574 55 q 604 25 622 25 l 660 25 q 665 25 665 20 z"},"R":{"x_min":0,"x_max":680,"ha":680,"o":"m 676 6 q 676 0 672 0 l 513 0 q 508 0 501 6 q 482 22 433 88 q 406 124 380 159 q 351 203 299 296 q 295 304 291 304 q 268 304 210 310 q 202 312 202 305 q 202 296 203 243 q 203 191 203 133 q 203 26 225 26 l 312 26 q 317 26 317 21 l 317 5 q 317 0 313 0 l 54 0 q 50 0 49 1 q 48 3 48 5 l 48 20 q 48 24 49 25 q 51 26 53 26 l 117 26 q 125 26 125 41 l 125 302 q 125 504 125 504 q 124 638 108 638 l 46 638 q 41 638 41 642 l 41 660 q 41 664 45 664 l 191 664 q 198 664 247 666 q 296 668 302 668 q 333 668 364 663 q 431 652 472 613 q 520 567 520 498 q 520 419 473 368 q 444 337 379 315 q 375 313 376 309 q 397 253 475 165 q 516 119 534 99 q 567 65 590 48 q 621 25 668 25 q 676 25 676 21 z m 439 472 q 439 537 396 578 q 336 635 222 635 q 206 635 204 628 q 204 488 202 453 q 202 453 202 342 q 202 336 209 335 q 220 333 271 333 q 292 333 318 337 q 344 341 342 341 q 439 366 439 472 z"},"T":{"x_min":0,"x_max":612,"ha":612,"o":"m 596 657 q 592 626 581 586 q 579 579 575 579 q 570 579 566 587 q 555 609 527 615 q 479 626 353 626 q 345 626 345 620 q 344 613 342 392 q 339 180 339 165 q 339 26 363 26 l 447 26 q 450 26 450 22 l 450 5 q 450 0 447 0 l 178 0 q 173 0 173 5 l 173 21 q 173 26 178 26 l 257 26 q 266 26 266 39 q 264 141 264 151 q 264 159 267 316 q 269 472 269 479 q 269 626 252 626 q 126 626 74 612 q 37 602 26 585 q 21 576 16 576 q 10 576 10 580 q 10 585 13 593 q 27 642 35 666 q 37 672 46 671 q 56 669 146 665 q 252 660 317 660 q 526 660 554 661 q 567 662 579 663 q 590 665 590 665 q 596 665 596 657 z"},"P":{"x_min":0,"x_max":552,"ha":552,"o":"m 526 465 q 526 391 475 337 q 422 281 318 281 q 270 281 205 298 q 201 299 201 295 l 201 136 q 201 25 221 25 l 309 25 q 315 25 315 19 l 315 6 q 315 0 312 0 l 49 0 q 45 0 45 4 l 45 19 q 45 25 50 25 l 117 25 q 125 25 125 37 l 125 540 q 125 631 113 631 l 46 631 q 39 631 39 635 l 39 652 q 39 657 45 657 l 167 657 q 175 657 232 659 q 288 660 291 660 q 345 660 379 653 q 435 642 477 598 q 526 547 526 465 z m 449 458 q 449 523 401 571 q 344 628 242 628 q 214 628 210 627 q 206 626 205 617 q 202 591 202 467 q 202 462 202 398 q 201 333 201 330 q 201 324 208 321 q 239 309 302 309 q 375 309 410 344 q 449 383 449 458 z"},"|":{"x_min":0,"x_max":288,"ha":288,"o":"m 163 -177 q 163 -186 155 -191 q 146 -197 135 -191 q 125 -186 125 -177 q 127 -70 127 265 q 127 628 125 723 q 125 731 135 737 q 146 743 155 737 q 163 731 163 723 z"},"t":{"x_min":0,"x_max":354,"ha":354,"o":"m 337 59 q 337 52 333 48 q 313 32 281 17 q 226 -9 178 -9 q 76 -9 76 95 q 76 102 78 204 q 80 306 80 311 q 80 317 79 353 q 78 389 78 391 q 78 401 69 406 q 62 410 31 423 q 24 426 25 434 q 25 440 32 446 q 81 487 136 533 q 144 538 149 538 q 157 538 154 524 q 148 492 148 459 q 148 443 153 443 q 157 443 237 446 q 317 448 320 448 q 330 448 327 438 q 327 428 320 410 q 317 403 311 403 q 307 403 231 403 q 156 404 153 404 q 147 404 147 399 l 147 128 q 147 85 159 66 q 172 44 233 44 q 266 44 311 59 q 331 68 332 68 q 337 68 337 59 z"},"M":{"x_min":0,"x_max":907,"ha":907,"o":"m 872 5 q 872 0 867 0 l 644 0 q 637 0 637 5 l 637 21 q 637 26 642 26 l 695 26 q 707 26 707 38 l 707 288 q 707 481 703 546 q 702 560 698 560 q 695 560 691 551 q 681 530 493 102 q 465 39 448 -6 q 443 -14 440 -14 q 433 -14 431 -7 q 364 131 292 279 q 252 366 181 509 q 177 517 173 517 q 169 517 169 507 q 156 312 156 222 l 156 112 q 156 26 179 26 l 237 26 q 242 26 242 22 l 242 5 q 242 0 239 0 l 62 0 q 56 0 56 4 l 56 19 q 56 26 61 26 l 112 26 q 125 26 125 48 q 125 124 132 327 q 134 365 136 404 q 140 479 140 534 q 140 605 91 630 q 80 635 47 638 q 43 638 43 642 l 43 660 q 43 664 47 664 l 176 664 q 185 664 188 657 q 233 567 286 462 q 363 296 453 112 q 461 100 466 108 q 521 232 583 372 q 644 512 707 655 q 712 664 722 664 l 847 664 q 852 664 852 660 l 852 643 q 852 638 849 638 l 801 638 q 786 638 783 605 q 780 574 780 360 q 780 203 783 135 q 788 26 812 26 l 868 26 q 872 26 872 21 z"},"g":{"x_min":0,"x_max":474,"ha":474,"o":"m 465 -87 q 465 -142 409 -193 q 341 -255 199 -255 q 103 -255 53 -215 q 12 -182 12 -138 q 12 -90 53 -47 q 66 -32 123 -10 q 137 -1 122 0 q 90 9 81 14 q 57 27 57 54 q 57 81 79 100 q 101 115 123 131 q 129 136 117 143 q 98 153 74 176 q 36 212 36 283 q 36 355 82 404 q 128 453 213 453 q 263 453 301 446 q 329 441 387 441 q 423 441 439 448 q 443 449 449 453 q 455 456 456 456 q 461 456 461 445 q 461 422 444 401 q 438 395 419 395 q 399 395 362 400 q 345 402 345 397 q 345 394 349 389 q 385 347 385 293 q 385 224 333 174 q 282 123 204 123 q 178 123 158 129 q 152 131 147 127 q 135 120 123 114 q 108 104 108 90 q 108 73 119 67 q 125 63 148 61 q 182 57 211 57 q 371 57 427 5 q 465 -29 465 -87 z m 314 266 q 314 341 279 378 q 238 421 186 421 q 137 421 120 396 q 99 364 99 315 q 99 252 120 213 q 154 149 221 149 q 267 149 289 177 q 314 209 314 266 z m 410 -114 q 410 -98 398 -79 q 383 -55 356 -43 q 292 -18 208 -18 q 132 -18 97 -52 q 60 -88 60 -135 q 60 -175 98 -200 q 144 -230 225 -230 q 314 -230 361 -193 q 389 -171 398 -157 q 410 -140 410 -114 z"},"j":{"x_min":0,"x_max":246,"ha":246,"o":"m 180 616 q 180 590 156 571 q 134 554 112 554 q 83 554 83 589 q 83 611 106 631 q 129 651 152 651 q 180 651 180 616 z m 176 428 q 176 424 171 210 q 167 -5 167 -11 q 167 -109 147 -156 q 128 -201 93 -227 q 57 -254 10 -254 q -55 -254 -55 -209 q -55 -197 -43 -187 q -31 -177 -12 -177 q 4 -177 25 -199 q 43 -218 49 -218 q 74 -218 85 -176 q 90 -157 97 -58 q 100 -17 100 325 q 100 418 70 418 l 16 418 q 9 418 9 423 l 9 441 q 9 446 13 446 l 67 446 q 104 446 119 449 q 130 450 147 451 q 162 453 163 453 q 176 453 176 428 z"},"i":{"x_min":0,"x_max":271,"ha":271,"o":"m 178 623 q 178 597 155 577 q 135 560 117 560 q 85 560 85 592 q 85 611 101 630 q 121 654 149 654 q 178 654 178 623 z m 259 5 q 259 0 253 0 l 21 0 q 16 0 16 6 l 16 21 q 16 28 20 28 l 91 28 q 100 28 100 38 q 100 41 101 156 q 101 272 101 284 q 101 360 100 375 q 94 421 73 421 l 25 421 q 17 421 17 426 l 17 443 q 17 449 22 449 l 51 449 q 96 449 138 453 q 169 456 167 456 q 178 456 178 441 q 178 439 175 296 q 171 152 171 145 q 171 28 195 28 l 254 28 q 259 28 259 23 z"},"y":{"x_min":0,"x_max":468,"ha":468,"o":"m 463 426 q 463 422 461 421 q 460 420 458 420 l 431 420 q 422 420 418 411 q 404 389 353 243 q 336 194 242 -36 q 187 -164 148 -231 q 145 -238 135 -240 q 132 -241 78 -249 q 33 -254 34 -254 q 25 -254 25 -248 q 25 -242 34 -238 q 82 -218 130 -154 q 202 -60 221 -10 q 224 -3 218 8 q 176 91 116 245 q 95 299 57 384 q 45 420 29 420 l 11 420 q 5 420 5 426 l 5 441 q 5 443 6 445 q 7 446 11 446 l 198 446 q 203 446 203 441 l 203 424 q 203 420 198 420 l 138 420 q 128 420 128 409 q 128 406 133 390 q 138 374 188 256 q 220 175 256 87 q 260 79 265 88 q 297 155 324 241 q 358 352 358 382 q 358 420 340 420 l 294 420 q 287 420 287 424 l 287 441 q 287 446 292 446 l 457 446 q 461 446 462 444 q 463 443 463 441 z"},"@":{"x_min":0,"x_max":732,"ha":732,"o":"m 693 379 q 693 363 691 346 q 675 214 550 187 q 477 171 440 180 q 389 192 381 249 q 380 257 375 251 q 356 227 324 208 q 286 186 254 186 q 226 186 215 196 q 186 222 186 243 q 186 247 187 251 q 193 283 214 353 q 237 432 247 443 q 268 467 323 484 q 350 492 426 508 q 431 509 432 517 q 432 521 440 521 q 446 521 459 519 q 465 519 477 518 q 484 518 483 512 l 436 309 q 434 297 434 286 q 434 265 449 240 q 456 229 470 213 q 485 197 489 197 q 626 197 646 346 q 648 361 648 376 q 648 495 566 577 q 482 661 355 661 q 260 661 168 563 q 78 467 78 321 q 78 205 144 127 q 222 35 362 35 q 428 35 521 87 q 525 88 530 86 q 538 82 540 76 q 542 70 533 64 q 457 11 357 11 q 209 11 115 105 q 22 200 22 348 q 22 485 120 583 q 218 681 355 681 q 514 681 605 595 q 693 512 693 379 z m 423 483 q 424 490 419 490 q 391 490 340 468 q 318 458 295 409 q 269 354 254 276 q 249 247 260 235 q 269 226 294 226 q 326 226 365 256 q 376 265 379 276 q 381 285 402 381 q 422 477 423 483 z"},".":{"x_min":0,"x_max":214,"ha":214,"o":"m 149 35 q 149 18 135 5 q 122 -7 104 -7 q 59 -7 59 35 q 59 82 113 82 q 149 82 149 35 z"},"p":{"x_min":0,"x_max":541,"ha":541,"o":"m 509 222 q 509 120 445 57 q 415 27 386 15 q 344 -3 276 -3 q 227 -3 164 30 q 154 35 154 26 l 154 -109 q 154 -142 159 -176 q 165 -228 178 -228 l 275 -228 q 279 -228 279 -232 l 279 -248 q 279 -254 276 -254 l 13 -254 q 7 -254 7 -250 l 7 -233 q 7 -228 13 -228 l 79 -228 q 87 -228 87 -220 q 87 -216 88 48 q 89 312 89 322 q 89 423 73 423 l 12 423 q 6 423 6 428 l 6 444 q 6 449 10 449 l 57 449 q 100 449 124 452 q 128 453 140 455 q 149 457 152 457 q 157 457 157 445 q 157 442 156 415 q 154 388 154 383 q 154 369 156 369 q 158 369 160 371 q 193 402 241 430 q 280 453 327 453 q 394 453 446 400 q 509 336 509 222 z m 446 201 q 446 236 429 277 q 414 316 393 337 q 347 383 275 383 q 220 383 197 371 q 181 363 157 345 q 154 341 154 333 l 154 65 q 154 54 158 51 q 212 24 292 24 q 375 24 420 92 q 446 130 446 201 z"},"X":{"x_min":0,"x_max":672,"ha":672,"o":"m 650 6 q 650 2 648 1 q 647 0 645 0 l 425 0 q 421 0 420 1 q 419 3 419 5 l 419 21 q 419 26 424 26 l 492 26 q 501 26 496 38 q 454 104 406 179 q 348 276 333 291 q 329 296 327 296 q 326 295 323 294 q 303 277 253 222 q 189 151 162 106 q 139 68 139 47 q 139 26 157 26 l 216 26 q 221 26 221 21 l 221 4 q 221 0 216 0 l 17 0 q 10 0 10 5 l 10 19 q 10 26 17 26 l 60 26 q 65 26 76 45 q 113 108 213 217 q 268 276 310 315 q 315 320 309 329 q 262 399 209 478 q 176 532 114 622 q 101 638 83 638 l 48 638 q 42 638 42 642 l 42 659 q 42 664 47 664 l 280 664 q 286 664 286 660 l 286 645 q 286 638 282 638 l 218 638 q 204 638 204 628 q 204 619 216 599 q 235 568 273 509 q 307 453 355 382 q 362 374 366 378 q 403 417 445 479 q 483 536 499 577 q 508 600 508 622 q 508 638 493 638 l 432 638 q 426 638 426 644 l 426 659 q 426 662 427 663 q 428 664 432 664 l 626 664 q 632 664 632 660 l 632 643 q 632 638 628 638 l 582 638 q 573 638 568 627 q 539 564 482 485 q 420 399 379 358 q 373 352 377 346 q 463 223 477 199 q 549 80 576 49 q 596 26 615 26 l 644 26 q 650 26 650 20 z"},"*":{"x_min":0,"x_max":486,"ha":486,"o":"m 435 539 q 435 537 426 499 q 422 483 417 460 q 415 455 405 455 q 403 455 371 460 q 282 474 270 474 q 284 447 309 399 q 324 369 344 351 q 351 347 358 339 q 358 337 353 333 q 351 333 336 330 q 322 327 316 326 q 286 323 279 322 q 272 322 269 331 q 263 347 258 363 q 250 403 236 461 q 208 430 178 396 q 173 392 159 372 q 145 352 145 347 q 145 335 140 330 q 136 326 133 331 q 125 342 112 362 q 105 380 94 397 q 91 401 98 409 q 99 410 126 429 q 160 449 204 479 q 172 476 125 472 q 91 471 69 457 q 59 450 53 451 q 48 451 48 457 q 48 459 52 473 q 55 487 56 493 q 56 494 67 530 q 68 535 77 535 q 89 535 113 532 q 153 525 214 516 q 204 546 176 597 q 163 622 139 641 q 130 645 127 652 q 125 657 130 659 q 144 660 168 663 q 203 670 206 670 q 211 671 213 661 q 213 660 218 646 q 223 632 224 629 q 234 588 251 525 q 271 547 307 588 q 330 617 337 645 q 340 659 348 662 q 356 649 370 630 q 375 619 391 595 q 391 589 385 583 q 374 575 358 561 q 351 557 328 543 q 301 526 292 516 q 318 517 358 519 q 402 523 415 532 q 428 541 435 539 z"},"Y":{"x_min":0,"x_max":592,"ha":592,"o":"m 585 642 q 585 638 582 638 l 548 638 q 535 638 521 615 q 486 558 437 476 q 390 401 339 319 q 334 308 334 303 q 334 301 333 213 q 333 125 333 117 q 333 26 352 26 l 436 26 q 438 26 440 25 q 441 24 441 20 l 441 4 q 441 0 437 0 l 174 0 q 167 0 167 6 l 167 19 q 167 26 173 26 l 253 26 q 261 26 261 38 l 260 299 q 260 313 255 320 q 247 331 165 467 q 130 526 69 617 q 52 638 29 638 l 11 638 q 7 638 6 640 q 5 641 5 643 l 5 657 q 5 664 11 664 l 230 664 q 237 664 237 658 l 237 643 q 237 638 233 638 l 177 638 q 164 638 164 628 q 164 621 170 608 q 200 557 242 486 q 301 381 319 356 q 325 348 329 353 q 346 375 387 445 q 429 515 442 544 q 464 592 464 626 q 464 638 451 638 l 408 638 q 404 638 404 642 l 404 659 q 404 664 408 664 l 581 664 q 585 664 585 660 z"},"c":{"x_min":0,"x_max":441,"ha":441,"o":"m 419 80 q 419 73 395 54 q 316 -7 226 -7 q 172 -7 141 10 q 94 35 60 96 q 32 146 32 221 q 32 272 44 316 q 60 374 104 412 q 152 454 238 454 q 314 454 366 404 q 394 377 394 355 q 394 332 376 332 q 352 332 326 357 q 303 380 295 408 q 292 420 273 423 q 254 426 235 426 q 210 426 195 423 q 154 415 131 389 q 92 346 92 253 q 92 158 155 92 q 183 62 224 54 q 245 49 290 49 q 351 49 393 79 q 399 83 407 89 q 409 90 413 90 q 419 84 419 80 z"},"!":{"x_min":0,"x_max":203,"ha":203,"o":"m 145 478 q 145 403 128 285 q 114 186 104 152 q 100 139 91 139 q 80 139 80 157 q 80 167 81 175 q 86 212 86 274 q 86 433 61 587 q 54 630 54 629 q 54 642 67 642 q 80 642 92 635 q 106 628 127 618 q 139 611 141 601 q 145 579 145 478 z m 137 36 q 137 18 125 6 q 112 -8 91 -8 q 51 -8 51 33 q 51 76 95 76 q 137 76 137 36 z"},"/":{"x_min":0,"x_max":292,"ha":292,"o":"m 288 716 q 290 714 285 698 q 271 653 164 334 q 55 9 41 -31 q 37 -42 31 -48 q 16 -50 10 -39 q 5 -34 13 -21 q 129 341 257 708 q 261 719 267 725 q 280 725 288 716 z"},"[":{"x_min":0,"x_max":358,"ha":358,"o":"m 352 -243 q 352 -249 347 -249 l 123 -249 q 109 -249 109 -235 l 109 714 q 109 725 118 725 l 345 725 q 352 725 352 721 l 352 705 q 352 699 346 699 l 222 699 q 205 699 190 701 q 185 702 184 699 q 182 696 183 691 q 186 673 186 658 l 186 -159 q 186 -162 184 -212 q 184 -220 186 -223 q 188 -226 193 -225 q 209 -223 215 -223 l 346 -223 q 352 -223 352 -227 z"},"6":{"x_min":0,"x_max":493,"ha":493,"o":"m 448 218 q 448 136 424 92 q 395 39 348 13 q 321 -1 307 -5 q 292 -8 246 -8 q 138 -8 84 83 q 41 155 41 262 q 41 375 94 475 q 146 571 226 618 q 299 661 399 661 q 444 661 444 645 q 444 635 423 635 q 410 635 374 630 q 333 624 318 618 q 254 593 211 550 q 150 489 125 413 q 120 397 126 397 q 129 397 134 401 q 156 412 185 426 q 224 446 279 446 q 314 446 346 427 q 366 415 374 408 q 388 396 405 375 q 448 320 448 218 z m 394 162 q 394 261 365 309 q 329 369 290 380 q 258 389 208 389 q 150 389 113 359 q 108 355 107 343 q 104 314 104 283 q 104 166 148 104 q 206 23 294 23 q 329 23 345 38 q 394 83 394 162 z"},"r":{"x_min":0,"x_max":364,"ha":364,"o":"m 355 403 q 350 371 340 342 q 337 334 333 334 q 328 334 324 339 q 312 357 302 364 q 283 379 253 379 q 198 379 170 355 q 165 351 165 342 q 165 339 165 229 q 164 119 164 113 q 164 26 180 26 l 276 26 q 282 26 282 19 l 282 5 q 282 0 278 0 l 28 0 q 21 0 21 5 l 21 19 q 21 26 27 26 l 86 26 q 95 26 95 35 l 95 356 q 95 423 79 423 l 19 423 q 14 423 14 428 l 14 444 q 14 449 19 449 l 86 449 q 121 449 131 452 q 158 460 160 460 q 167 460 167 447 q 167 443 166 418 q 165 392 165 389 q 165 375 171 381 q 193 400 222 424 q 258 450 292 450 q 332 450 353 417 q 357 410 355 403 z"},"2":{"x_min":0,"x_max":498,"ha":498,"o":"m 456 65 q 456 62 450 49 q 442 30 431 6 q 427 0 423 0 l 54 0 q 46 0 46 15 q 46 25 63 36 q 189 120 264 217 q 316 285 335 336 q 354 385 354 447 q 354 514 321 551 q 283 594 201 594 q 104 594 62 539 q 58 534 53 536 q 45 540 45 544 q 45 559 71 586 q 95 610 118 623 q 175 656 250 656 q 327 656 374 609 q 419 564 419 484 q 419 430 397 376 q 355 273 290 202 q 218 123 144 68 q 139 64 139 62 q 139 56 151 56 l 271 56 q 379 56 433 68 q 446 71 449 71 q 456 71 456 65 z"},"{":{"x_min":0,"x_max":325,"ha":325,"o":"m 339 -250 q 339 -254 332 -254 l 237 -254 q 159 -254 118 -195 q 82 -143 82 -61 q 82 -10 99 57 q 116 124 116 171 q 116 195 91 214 q 68 232 46 232 q 26 232 26 248 q 26 264 46 264 q 69 264 91 277 q 116 292 116 315 q 116 362 99 422 q 82 481 82 532 q 82 610 124 666 q 168 725 237 725 l 332 725 q 339 725 339 721 l 339 705 q 339 699 333 699 l 269 699 q 212 699 179 639 q 150 585 150 507 q 150 458 161 402 q 173 345 173 317 q 173 266 99 247 q 121 234 142 222 q 173 199 173 169 q 173 141 161 77 q 150 13 150 -36 q 150 -117 176 -168 q 208 -228 269 -228 l 333 -228 q 339 -228 339 -234 z"},"9":{"x_min":0,"x_max":501,"ha":501,"o":"m 464 406 q 464 287 411 183 q 358 78 277 35 q 230 10 212 4 q 174 -8 115 -8 q 58 -8 58 8 q 58 19 92 19 q 152 19 207 42 q 265 66 321 131 q 368 185 379 229 q 382 240 380 243 q 378 246 372 243 q 347 231 311 220 q 260 204 230 204 q 165 204 116 254 q 56 315 56 426 q 56 548 125 611 q 176 658 253 658 q 344 658 404 592 q 464 525 464 406 z m 400 371 q 400 483 346 555 q 296 622 211 622 q 173 622 158 607 q 112 562 112 482 q 112 382 146 330 q 167 297 184 284 q 200 272 229 265 q 255 259 305 259 q 352 259 389 290 q 396 298 397 307 q 400 323 400 371 z"}," ":{"x_min":0,"x_max":214,"ha":214,"o":""},"I":{"x_min":0,"x_max":327,"ha":327,"o":"m 293 4 q 293 0 290 0 l 53 0 q 49 0 48 1 q 47 3 47 5 l 47 20 q 47 24 48 25 q 50 26 52 26 l 118 26 q 125 26 125 40 l 124 545 q 124 637 107 637 l 45 637 q 38 637 38 642 l 38 659 q 38 663 43 663 l 280 663 q 284 663 284 659 l 284 641 q 284 637 279 637 l 210 637 q 201 637 201 627 q 200 184 200 169 q 200 97 201 86 q 204 26 220 26 l 289 26 q 293 26 293 22 z"},"H":{"x_min":0,"x_max":760,"ha":760,"o":"m 730 6 q 730 0 726 0 l 474 0 q 468 0 468 5 l 468 21 q 468 26 475 26 l 546 26 q 555 26 557 31 q 559 36 559 62 q 560 115 560 331 q 560 340 552 340 l 209 340 q 200 340 200 329 q 200 171 201 135 q 204 26 223 26 l 305 26 q 309 26 309 20 l 309 5 q 309 0 305 0 l 52 0 q 46 0 46 5 l 46 20 q 46 26 52 26 l 113 26 q 125 26 127 31 q 129 36 129 62 q 129 70 128 195 q 127 320 127 333 q 127 347 126 439 q 125 532 125 538 q 125 637 109 637 l 40 637 q 34 637 34 642 l 34 658 q 34 663 40 663 l 289 663 q 295 663 295 656 q 295 642 295 642 q 295 637 289 637 l 216 637 q 205 637 203 635 q 201 634 201 624 q 201 364 200 388 q 201 377 208 377 l 551 377 q 559 377 559 386 q 559 390 559 464 q 558 539 558 546 q 558 637 539 637 l 464 637 q 459 637 459 643 l 459 658 q 459 663 466 663 l 716 663 q 722 663 722 656 l 722 643 q 722 637 716 637 l 652 637 q 638 637 635 635 q 633 632 633 619 q 633 619 633 354 q 633 156 634 125 q 637 26 653 26 l 724 26 q 730 26 730 20 z"},"4":{"x_min":0,"x_max":531,"ha":531,"o":"m 487 278 q 487 272 482 263 q 476 243 460 224 q 457 218 451 218 q 421 221 386 221 q 378 221 378 213 q 378 210 380 123 q 382 37 382 29 q 382 14 375 10 q 372 8 345 -4 q 315 -17 312 -17 q 301 -17 301 -4 q 301 0 305 103 q 310 206 310 210 q 310 220 301 220 l 43 220 q 26 220 26 233 q 26 241 31 248 q 51 269 191 447 q 270 549 369 672 q 379 681 388 681 q 396 681 396 669 q 396 666 388 478 q 380 290 380 284 q 380 273 387 275 q 392 275 435 279 q 478 283 480 283 q 487 283 487 278 z m 323 553 q 323 567 310 551 q 300 541 229 451 l 100 288 q 95 282 95 279 q 96 277 102 277 l 306 277 q 313 277 315 279 q 317 282 317 287 q 317 292 320 422 q 323 551 323 553 z"},"~":{"x_min":0,"x_max":291,"ha":291,"o":"m 284 250 q 286 244 278 232 q 250 191 193 191 q 164 191 133 208 q 81 237 59 237 q 45 237 32 224 q 27 218 19 209 q 13 207 7 224 q 4 230 12 242 q 39 283 97 283 q 121 283 156 266 q 215 237 231 237 q 246 237 258 250 q 263 256 272 265 q 275 267 284 250 z"},"D":{"x_min":0,"x_max":682,"ha":682,"o":"m 644 337 q 644 134 509 44 q 460 11 397 1 q 360 -5 285 -5 q 250 -5 195 -2 q 140 0 103 0 l 49 0 q 44 0 44 5 q 44 6 43 12 q 43 18 43 21 q 43 26 49 26 l 117 26 q 125 26 125 41 q 125 48 124 170 q 122 291 122 302 q 122 302 123 422 q 124 528 123 539 q 120 638 105 638 l 36 638 q 31 638 31 643 l 31 659 q 31 664 37 664 l 339 664 q 414 664 458 645 q 487 632 501 624 q 532 606 561 577 q 644 494 644 337 z m 576 271 q 576 418 500 513 q 446 580 382 606 q 315 633 250 633 q 223 633 212 630 q 201 628 201 611 q 201 604 201 490 q 200 377 200 362 l 200 164 q 200 37 216 34 q 254 27 347 27 q 450 27 505 80 q 576 148 576 271 z"},"^":{"x_min":0,"x_max":380,"ha":380,"o":"m 342 507 q 340 501 337 493 q 333 490 329 489 q 326 493 318 501 q 271 543 187 629 l 183 637 l 179 629 q 159 604 114 562 q 60 514 48 501 q 44 496 37 489 q 36 489 29 493 q 25 499 24 507 q 23 511 32 524 q 81 597 159 709 q 163 714 170 722 q 171 722 178 717 q 180 715 183 712 q 185 713 188 717 q 193 722 196 722 q 198 721 207 709 q 255 639 334 524 q 343 511 342 507 z"},"0":{"x_min":0,"x_max":511,"ha":511,"o":"m 474 331 q 474 266 468 231 q 461 191 439 138 q 405 56 352 23 q 321 4 310 0 q 293 -6 260 -6 q 212 -6 185 5 q 178 8 135 38 q 101 62 69 133 q 37 204 37 312 q 37 467 94 568 q 121 615 167 638 q 214 661 260 661 q 344 661 412 576 q 474 499 474 331 z m 414 279 q 414 400 387 476 q 358 558 326 589 q 288 626 219 626 q 175 626 150 595 q 122 561 111 501 q 101 445 101 392 q 101 351 108 286 q 117 217 126 186 q 164 62 206 42 q 249 22 285 22 q 333 22 362 53 q 414 109 414 279 z"},"F":{"x_min":0,"x_max":561,"ha":561,"o":"m 542 657 q 542 660 534 628 q 529 610 523 582 q 522 575 517 575 q 514 575 511 580 q 505 590 496 599 q 479 615 441 619 q 433 620 324 625 q 216 631 210 631 q 204 631 204 626 q 198 599 198 389 q 198 376 208 376 l 451 376 q 459 376 460 381 q 462 409 466 443 q 467 449 473 449 l 482 449 q 487 449 487 442 q 487 440 485 399 q 483 357 483 351 q 483 344 483 299 q 484 254 484 251 q 484 238 478 238 l 468 238 q 464 238 463 244 q 463 247 461 286 q 459 325 459 327 q 459 332 452 333 q 422 338 207 338 q 200 338 199 331 q 199 331 199 155 q 199 26 225 26 l 322 26 q 326 26 326 22 l 326 6 q 326 0 321 0 l 56 0 q 51 0 51 5 l 51 19 q 51 26 56 26 l 116 26 q 124 26 125 35 q 126 44 126 357 l 126 527 q 126 637 109 637 l 47 637 q 41 637 41 641 l 41 658 q 41 663 46 663 l 205 663 q 212 663 346 662 q 479 661 487 661 q 497 661 516 662 q 535 663 535 663 q 542 663 542 657 z"},"`":{"x_min":0,"x_max":266,"ha":266,"o":"m 240 487 q 232 482 215 490 q 149 521 60 572 q 46 580 39 587 q 34 592 44 592 q 87 592 110 595 q 118 596 125 590 q 166 559 233 506 q 249 494 240 487 z"},"k":{"x_min":0,"x_max":540,"ha":540,"o":"m 535 6 q 535 0 532 0 l 406 0 q 401 0 395 6 q 392 8 355 54 q 318 101 314 106 q 307 117 243 193 q 235 203 231 199 q 207 183 173 161 q 167 157 167 146 q 167 25 184 25 l 258 25 q 264 25 264 21 l 264 6 q 264 0 260 0 l 21 0 q 15 0 15 5 l 15 20 q 15 26 20 26 l 88 26 q 95 26 95 33 l 95 568 q 95 689 76 689 l 17 689 q 11 689 11 693 l 11 709 q 11 714 17 714 l 56 714 q 93 714 126 724 q 132 726 147 732 q 157 737 163 737 q 171 737 171 721 q 171 720 169 463 q 167 206 167 202 q 167 188 174 192 q 204 209 264 259 q 333 316 375 364 q 398 390 398 409 q 398 425 378 425 l 327 425 q 323 425 323 430 l 323 445 q 323 450 327 450 l 408 450 q 431 450 450 451 q 457 451 467 453 q 476 454 479 454 q 487 454 487 443 q 487 434 477 422 q 457 393 404 340 q 397 333 294 248 q 289 243 296 237 q 300 233 338 190 q 375 147 380 142 q 384 136 453 56 q 479 26 493 26 l 530 26 q 535 26 535 21 z"},"u":{"x_min":0,"x_max":529,"ha":529,"o":"m 491 20 q 491 16 487 13 q 475 8 456 0 q 451 -3 441 -10 q 438 -13 432 -13 q 433 -13 419 -6 q 393 10 377 67 q 375 75 367 69 q 351 56 277 12 q 247 -6 176 -6 q 136 -6 111 29 q 88 62 88 105 l 88 298 q 88 421 68 421 l 10 421 q 3 421 3 426 l 3 442 q 3 447 7 447 l 67 447 q 69 447 91 448 q 113 450 117 450 q 153 454 149 454 q 157 454 157 441 q 157 440 156 292 q 155 144 155 131 q 155 85 175 67 q 193 52 235 52 q 277 52 367 92 q 372 92 372 100 q 372 100 372 351 q 372 419 352 419 l 294 419 q 288 419 288 424 l 288 440 q 288 445 292 445 l 355 445 q 385 445 406 448 q 434 452 435 452 q 442 452 442 438 q 442 436 441 284 q 440 133 440 125 q 440 56 485 28 q 491 24 491 20 z"},"]":{"x_min":0,"x_max":358,"ha":358,"o":"m 247 -235 q 247 -249 233 -249 l 10 -249 q 5 -249 5 -243 l 5 -227 q 5 -223 11 -223 l 142 -223 q 147 -223 164 -225 q 169 -225 171 -222 q 173 -220 172 -212 q 172 -205 171 -187 q 171 -168 171 -159 l 171 658 q 171 679 173 691 q 174 696 173 699 q 171 702 167 701 q 153 699 135 699 l 11 699 q 5 699 5 705 l 5 721 q 5 725 12 725 l 238 725 q 247 725 247 714 z"},"U":{"x_min":0,"x_max":754,"ha":754,"o":"m 712 644 q 712 638 709 638 l 681 638 q 644 638 639 637 q 637 628 637 616 q 635 584 634 518 q 633 424 636 267 q 641 -14 405 -14 q 303 -14 239 8 q 176 30 148 85 q 125 131 122 223 q 120 283 120 524 q 120 638 101 638 l 35 638 q 30 638 30 643 l 30 658 q 30 664 35 664 l 275 664 q 281 664 281 660 l 281 645 q 281 638 277 638 l 209 638 q 203 638 202 630 q 199 610 199 308 q 199 203 205 166 q 216 96 270 60 q 324 24 416 24 q 508 24 563 79 q 605 121 605 245 q 605 409 602 488 q 596 638 571 638 l 508 638 q 504 638 503 640 q 502 641 502 643 l 502 659 q 502 664 508 664 l 707 664 q 712 664 712 659 z"},"o":{"x_min":0,"x_max":491,"ha":491,"o":"m 459 226 q 459 163 438 113 q 414 55 349 19 q 305 -6 246 -6 q 180 -6 152 6 q 92 32 62 93 q 32 154 32 222 q 32 297 65 355 q 95 407 149 434 q 191 455 268 455 q 331 455 367 432 q 415 402 438 346 q 459 295 459 226 z m 390 202 q 390 304 342 361 q 292 420 213 420 q 171 420 156 413 q 146 409 133 390 q 104 348 104 265 q 104 179 135 107 q 156 58 192 36 q 223 17 261 17 q 305 17 329 31 q 358 48 376 96 q 390 133 390 202 z"},"N":{"x_min":0,"x_max":744,"ha":744,"o":"m 731 644 q 731 638 726 638 l 658 638 q 648 638 648 625 q 648 621 647 492 q 646 363 646 352 q 646 342 644 178 q 642 14 642 5 q 642 -18 636 -18 q 629 -18 625 -12 q 581 47 362 326 q 284 430 179 558 q 172 564 170 554 q 168 548 163 375 q 157 200 157 156 q 157 26 183 26 l 248 26 q 253 26 253 22 l 253 4 q 253 0 249 0 l 57 0 q 51 0 51 3 l 51 21 q 51 26 57 26 l 117 26 q 125 26 125 33 l 125 105 q 125 134 132 339 q 139 544 139 548 q 139 638 77 638 l 43 638 q 39 638 39 643 l 39 659 q 39 664 44 664 l 198 664 q 205 664 209 656 q 213 648 290 546 q 366 444 376 432 q 485 287 608 132 q 610 130 612 130 q 615 130 616 144 q 617 153 616 317 q 616 481 615 494 q 608 638 580 638 l 513 638 q 507 638 507 643 l 507 659 q 507 664 512 664 l 725 664 q 731 664 731 660 z"},"+":{"x_min":0,"x_max":482,"ha":482,"o":"m 390 306 q 390 276 383 276 q 389 276 347 276 q 306 277 265 277 q 265 238 265 195 q 264 152 264 156 q 264 146 234 146 q 206 146 206 153 q 206 150 207 194 q 207 238 207 277 q 169 277 123 278 q 77 279 81 279 q 71 279 71 298 q 71 312 76 325 q 80 337 84 337 q 83 337 126 336 q 170 336 207 336 q 207 375 208 419 q 209 464 209 460 q 209 470 228 470 q 240 470 254 466 q 267 461 267 457 q 267 454 266 414 q 265 373 265 336 q 305 336 344 335 q 382 334 380 334 q 390 334 390 306 z"},"G":{"x_min":0,"x_max":728,"ha":728,"o":"m 697 287 q 697 281 691 281 l 621 281 q 615 281 615 275 q 615 279 614 244 q 613 209 613 176 q 613 115 616 64 q 616 57 611 56 q 594 56 539 31 q 456 -7 362 -7 q 256 -7 213 10 q 133 41 88 106 q 37 179 37 307 q 37 434 119 535 q 178 607 297 644 q 362 664 465 664 q 572 664 623 646 q 629 644 629 639 q 629 637 626 617 q 624 595 623 592 q 618 542 616 533 q 615 528 611 528 q 604 528 604 532 q 604 544 601 555 q 596 574 575 588 q 519 625 403 625 q 339 625 297 610 q 242 591 194 539 q 116 455 116 325 q 116 182 199 99 q 247 51 307 35 q 347 24 414 24 q 474 24 531 62 q 535 67 535 71 l 535 157 q 535 204 534 222 q 531 281 524 281 l 419 281 q 413 281 413 290 l 413 300 q 413 307 420 307 l 690 307 q 697 307 697 301 z"},"q":{"x_min":0,"x_max":522,"ha":522,"o":"m 533 -186 q 533 -192 527 -194 q 482 -207 412 -229 q 371 -247 375 -247 q 367 -247 367 -237 q 367 -233 371 -215 q 380 -175 381 -115 q 382 -67 382 66 q 382 82 370 70 q 346 46 313 28 q 248 -8 204 -8 q 149 -8 116 14 q 101 24 77 55 q 32 113 32 225 q 32 324 91 390 q 149 456 235 456 q 292 456 351 422 q 402 392 404 392 q 422 392 432 449 q 435 463 444 463 q 453 463 453 449 q 453 447 449 177 q 446 -92 446 -103 q 446 -188 463 -186 q 466 -185 514 -172 q 524 -169 530 -169 q 533 -169 533 -174 z m 384 120 q 384 308 376 369 q 375 376 368 386 q 356 395 315 407 q 267 421 229 421 q 187 421 164 406 q 152 397 132 371 q 93 318 93 241 q 93 192 114 144 q 130 106 146 93 q 188 57 242 57 q 291 57 331 72 q 364 85 377 102 q 384 109 384 120 z"},"d":{"x_min":0,"x_max":533,"ha":533,"o":"m 538 57 q 538 48 534 47 q 496 34 427 3 q 385 -16 388 -16 q 381 -16 381 -5 q 381 -1 382 17 q 384 35 384 39 q 384 55 382 69 q 379 77 371 73 q 343 52 303 23 q 259 -6 195 -6 q 154 -6 126 10 q 82 35 60 84 q 32 147 32 218 q 32 338 93 398 q 146 450 228 450 q 273 450 307 438 q 326 431 368 407 q 375 403 375 416 q 375 421 374 508 q 373 595 373 603 q 373 689 354 689 l 286 689 q 281 689 281 695 l 281 708 q 281 715 286 715 l 309 715 q 373 715 414 732 q 440 743 441 743 q 447 743 447 730 q 447 729 445 668 q 444 607 444 596 l 444 137 q 444 40 463 46 q 498 57 512 63 q 529 70 533 70 q 538 70 538 57 z m 381 122 q 381 118 380 173 q 380 228 380 270 q 380 333 372 372 q 369 385 357 392 q 305 420 237 420 q 168 420 134 380 q 91 330 91 235 q 91 198 105 157 q 117 122 130 105 q 153 76 175 65 q 199 54 244 54 q 313 54 374 99 q 381 104 381 122 z"},"1":{"x_min":0,"x_max":340,"ha":340,"o":"m 313 5 q 313 0 309 0 l 42 0 q 37 0 37 6 l 37 22 q 37 28 42 28 l 131 28 q 141 28 141 54 q 141 60 142 276 q 143 492 143 498 q 143 568 140 588 q 135 621 87 621 l 50 621 q 44 621 44 627 l 44 642 q 44 648 50 648 l 102 648 q 163 648 188 653 q 213 658 212 658 q 219 658 219 648 q 219 649 215 411 q 211 174 211 155 q 211 28 232 28 l 308 28 q 313 28 313 23 z"},"5":{"x_min":0,"x_max":484,"ha":484,"o":"m 435 646 q 435 636 424 614 q 413 592 401 581 q 393 573 385 573 q 367 572 353 572 q 284 572 213 588 q 166 600 149 608 q 142 610 139 605 q 131 591 109 474 q 107 466 108 464 q 109 461 115 462 q 167 469 198 469 q 255 469 301 447 q 341 428 367 402 q 430 339 430 234 q 430 141 365 72 q 338 44 294 20 q 244 -7 164 -7 q 83 -7 36 26 q 25 34 25 39 q 25 54 33 54 q 33 54 47 47 q 79 26 155 26 q 248 26 305 83 q 324 103 341 141 q 357 178 357 225 q 357 309 289 366 q 264 387 232 399 q 189 415 141 415 q 136 415 115 414 q 93 413 90 413 q 76 413 76 426 q 76 441 122 648 q 125 661 141 659 q 295 645 384 645 q 406 645 416 648 q 433 653 429 653 q 435 653 435 646 z"}}}
